{"title":"MEN_OF_HONOR[2000]-AC3-5.1-Dvdrip-Maka6358.avi","uid":4826646,"size":1468750482,"categoryP":"video","categoryS":"movies","magnet":"?xt=urn:btih:2595e6fc6eeb8244baa02ead9fada496ef844535&amp;dn=MEN_OF_HONOR%5B2000%5D-AC3-5.1-Dvdrip-Maka6358.avi&amp;tr=udp%3A%2F%2Ftracker.openbittorrent.com%3A80&amp;tr=udp%3A%2F%2Fopen.demonii.com%3A1337&amp;tr=udp%3A%2F%2Ftracker.coppersurfer.tk%3A6969&amp;tr=udp%3A%2F%2Fexodus.desync.com%3A6969","seeders":0,"leechers":1,"uploader":"Maka6358","files":4,"time":1238968405,"description":"The story ultimately revolves around two &quot;men of honor&quot;; their relationship, their individual and joint failures and triumphs. Carl Brashear is determined to be the first African American Navy Diver in a time where racism is strife. Leslie Sunday is his embittered trainer, determined to see him fail. Fate, challenges and circumstances eventually draw these two men together in a tale of turbulance and ultimately triumph.\n &lt;a href=&quot;\nhttp://www.imdb.com/title/tt0203019/&quot; rel=&quot;nofollow&quot; target=&quot;_NEW&quot;&gt;\nhttp://www.imdb.com/title/tt0203019/&lt;/a&gt;\n\nGeneral\nComplete name                    : MEN_OF_HONOR[2000]-AC3-5.1-Dvdrip-Maka6358.avi\nFormat                           : AVI\nFormat/Info                      : Audio Video Interleave\nFile size                        : 1.37 GiB\nDuration                         : 2h 3mn\nOverall bit rate                 : 1 585 Kbps\nWriting application              : VirtualDubMod 1.5.4.1 (build 2178/release)\nWriting library                  : VirtualDubMod build 2178/release\n\nVideo\nFormat                           : MPEG-4 Visual\nFormat profile                   : Streaming Video@L1\nFormat settings, BVOP            : Yes\nFormat settings, QPel            : No\nFormat settings, GMC             : No warppoints\nFormat settings, Matrix          : Custom\nCodec ID                         : XVID\nCodec ID/Hint                    : XviD\nDuration                         : 2h 3mn\nBit rate                         : 1 194 Kbps\nWidth                            : 672 pixels\nHeight                           : 288 pixels\nDisplay aspect ratio             : 2.35\nFrame rate                       : 25.000 fps\nResolution                       : 24 bits\nColorimetry                      : 4:2:0\nScan type                        : Progressive\nBits/(Pixel*Frame)               : 0.247\nStream size                      : 1.03 GiB (75%)\nWriting library                  : XviD 1.2.0.dev47 (UTC 2006-11-01)\n\nAudio\nFormat                           : AC-3\nFormat/Info                      : Audio Coding 3\nCodec ID                         : 2000\nDuration                         : 2h 3mn\nBit rate mode                    : Constant\nBit rate                         : 384 Kbps\nChannel(s)                       : 6 channels\nChannel positions                : Front: L C R, Surround: L R, LFE\nSampling rate                    : 48.0 KHz\nVideo delay                      : 17ms\nStream size                      : 339 MiB (24%)\nAlignment                        : Split accross interleaves\nInterleave, duration             : 96 ms (2.40 video frames)\nInterleave, preload duration     : 96 ms\nLanguage                         : English\n\nInfo Hash                        : 2595E6FC6EEB8244BAA02EAD9FADA496EF844535","torrent":{"xt":"urn:btih:2595e6fc6eeb8244baa02ead9fada496ef844535","amp;dn":"MEN_OF_HONOR%5B2000%5D-AC3-5.1-Dvdrip-Maka6358.avi","amp;tr":["udp%3A%2F%2Ftracker.openbittorrent.com%3A80","udp%3A%2F%2Fopen.demonii.com%3A1337","udp%3A%2F%2Ftracker.coppersurfer.tk%3A6969","udp%3A%2F%2Fexodus.desync.com%3A6969"],"infoHash":"2595e6fc6eeb8244baa02ead9fada496ef844535","infoHashBuffer":{"type":"Buffer","data":[37,149,230,252,110,235,130,68,186,160,46,173,159,173,164,150,239,132,69,53]},"announce":[],"urlList":[]}}